<svg width="48" height="48" viewBox="0 0 48 48" fill="none" xmlns="http://www.w3.org/2000/svg">
<path d="M25.05 31.5C26.2167 31.5 27.35 31.2583 28.45 30.775C29.55 30.2917 30.5333 29.5833 31.4 28.65C31.6 28.4167 31.6917 28.2333 31.675 28.1C31.6583 27.9667 31.5 27.8667 31.2 27.8C29.9 27.5333 28.6667 27.0083 27.5 26.225C26.3333 25.4417 25.3667 24.4167 24.6 23.15C23.9 21.95 23.4833 20.6583 23.35 19.275C23.2167 17.8917 23.3833 16.55 23.85 15.25C23.95 14.95 23.9333 14.75 23.8 14.65C23.6667 14.55 23.4333 14.5333 23.1 14.6C21.0333 15.0667 19.4083 16.1083 18.225 17.725C17.0417 19.3417 16.45 21.1 16.45 23C16.45 25.3667 17.2833 27.375 18.95 29.025C20.6167 30.675 22.65 31.5 25.05 31.5ZM24 43.95C19.3333 42.7833 15.5 40.075 12.5 35.825C9.5 31.575 8 26.9167 8 21.85V9.95001L24 3.95001L40 9.95001V21.85C40 26.9167 38.5 31.575 35.5 35.825C32.5 40.075 28.6667 42.7833 24 43.95ZM24 40.85C27.8333 39.5833 30.9583 37.1917 33.375 33.675C35.7917 30.1583 37 26.2167 37 21.85V12.05L24 7.15001L11 12.05V21.85C11 26.2167 12.2083 30.1583 14.625 33.675C17.0417 37.1917 20.1667 39.5833 24 40.85Z" fill="url(#paint0_linear_1_37)"/>
<defs>
<linearGradient id="paint0_linear_1_37" x1="24" y1="3.95001" x2="24" y2="43.95" gradientUnits="userSpaceOnUse">
<stop stop-color="#FDAD00"/>
<stop offset="1" stop-color="#FDAD00" stop-opacity="0"/>
</linearGradient>
</defs>
</svg>
