<svg width="48" height="48" viewBox="0 0 48 48" fill="none" xmlns="http://www.w3.org/2000/svg">
<path d="M26.2 46C23.4 46 20.775 45.4667 18.325 44.4C15.875 43.3333 13.7417 41.8917 11.925 40.075C10.1083 38.2583 8.66667 36.125 7.6 33.675C6.53333 31.225 6 28.6 6 25.8C6 20.9333 7.55 16.6417 10.65 12.925C13.75 9.20833 17.7 6.9 22.5 6C21.9 9.26667 22.0833 12.475 23.05 15.625C24.0167 18.775 25.6833 21.5333 28.05 23.9C30.4167 26.2667 33.175 27.9417 36.325 28.925C39.475 29.9083 42.7 30.1 46 29.5C45.1333 34.3 42.8333 38.25 39.1 41.35C35.3667 44.45 31.0667 46 26.2 46ZM26.2 43C29.5333 43 32.5667 42.05 35.3 40.15C38.0333 38.25 40.2333 35.8333 41.9 32.9C38.9 32.6333 36.0167 31.9417 33.25 30.825C30.4833 29.7083 28.05 28.1 25.95 26C23.8167 23.9 22.2 21.475 21.1 18.725C20 15.975 19.3167 13.1167 19.05 10.15C16.1167 11.75 13.7083 13.925 11.825 16.675C9.94167 19.425 9 22.4667 9 25.8C9 30.5667 10.675 34.625 14.025 37.975C17.375 41.325 21.4333 43 26.2 43Z" fill="url(#paint0_linear_1_31)"/>
<defs>
<linearGradient id="paint0_linear_1_31" x1="26" y1="6" x2="26" y2="46" gradientUnits="userSpaceOnUse">
<stop stop-color="#FDAD00"/>
<stop offset="1" stop-color="#FDAD00" stop-opacity="0"/>
</linearGradient>
</defs>
</svg>
