<svg width="46" height="46" viewBox="0 0 46 46" fill="none" xmlns="http://www.w3.org/2000/svg">
<path d="M33.0503 2H12.0503C6.2513 2 1.55029 6.70101 1.55029 12.5V33.5C1.55029 39.299 6.2513 44 12.0503 44H33.0503C38.8493 44 43.5503 39.299 43.5503 33.5V12.5C43.5503 6.70101 38.8493 2 33.0503 2Z" stroke="#FDAD00" stroke-width="3" stroke-linecap="round" stroke-linejoin="round"/>
<path d="M30.9504 21.6778C31.2095 23.4255 30.911 25.2104 30.0973 26.7787C29.2835 28.347 27.996 29.6188 26.4178 30.4131C24.8396 31.2074 23.0511 31.4839 21.3067 31.2032C19.5623 30.9225 17.9509 30.099 16.7015 28.8496C15.4522 27.6003 14.6286 25.9888 14.3479 24.2444C14.0672 22.5 14.3437 20.7116 15.138 19.1334C15.9324 17.5552 17.2042 16.2676 18.7724 15.4539C20.3407 14.6401 22.1256 14.3416 23.8734 14.6008C25.6561 14.8651 27.3065 15.6959 28.5809 16.9702C29.8553 18.2446 30.686 19.895 30.9504 21.6778Z" stroke="#FDAD00" stroke-width="3" stroke-linecap="round" stroke-linejoin="round"/>
<path d="M34.1001 11.45H34.1211" stroke="#FDAD00" stroke-width="3" stroke-linecap="round" stroke-linejoin="round"/>
</svg>
