<svg width="342" height="40" viewBox="0 0 342 40" fill="none" xmlns="http://www.w3.org/2000/svg">
<path d="M0.328 39V0.52H16.24C17.7653 0.52 19.1867 0.710666 20.504 1.092C21.8213 1.43866 22.9827 2.06266 23.988 2.964C24.9933 3.86533 25.7733 5.11333 26.328 6.708C26.9173 8.30266 27.212 10.348 27.212 12.844C27.212 14.612 27.0387 16.12 26.692 17.368C26.3453 18.616 25.8773 19.6387 25.288 20.436C24.7333 21.2333 24.092 21.8747 23.364 22.36C22.636 22.8453 21.8907 23.244 21.128 23.556L28.304 39H20.452L14.264 24.752C13.848 24.752 13.3627 24.752 12.808 24.752C12.288 24.7173 11.7507 24.7 11.196 24.7C10.6413 24.7 10.0867 24.7 9.532 24.7C8.97733 24.7 8.47467 24.6827 8.024 24.648V39H0.328ZM8.024 18.564H14.888C15.5813 18.564 16.2053 18.4773 16.76 18.304C17.3147 18.1307 17.8 17.836 18.216 17.42C18.632 16.9693 18.944 16.38 19.152 15.652C19.3947 14.924 19.516 13.988 19.516 12.844C19.516 11.7693 19.3947 10.8853 19.152 10.192C18.944 9.464 18.632 8.90933 18.216 8.528C17.8 8.112 17.3147 7.83466 16.76 7.696C16.2053 7.52266 15.5813 7.436 14.888 7.436H8.024V18.564ZM47.8016 39.312C45.1669 39.312 42.8616 39.0693 40.8856 38.584C38.9096 38.064 37.2456 37.128 35.8936 35.776C34.5762 34.3893 33.5882 32.4133 32.9296 29.848C32.2709 27.2827 31.9416 23.9373 31.9416 19.812C31.9416 15.6867 32.2709 12.3413 32.9296 9.776C33.6229 7.176 34.6282 5.18267 35.9456 3.796C37.2629 2.40933 38.9096 1.456 40.8856 0.935997C42.8616 0.415998 45.1669 0.155998 47.8016 0.155998C50.4362 0.155998 52.7416 0.415998 54.7176 0.935997C56.6936 1.456 58.3402 2.40933 59.6576 3.796C60.9749 5.18267 61.9629 7.176 62.6216 9.776C63.2802 12.3413 63.6096 15.6867 63.6096 19.812C63.6096 23.9373 63.2802 27.2827 62.6216 29.848C61.9629 32.4133 60.9749 34.3893 59.6576 35.776C58.3402 37.128 56.6936 38.064 54.7176 38.584C52.7416 39.0693 50.4362 39.312 47.8016 39.312ZM47.8016 32.396C49.3616 32.396 50.6616 32.2227 51.7016 31.876C52.7416 31.5293 53.5562 30.9227 54.1456 30.056C54.7696 29.1547 55.2202 27.8893 55.4976 26.26C55.7749 24.596 55.9136 22.4467 55.9136 19.812C55.9136 17.0387 55.7749 14.82 55.4976 13.156C55.2202 11.492 54.7696 10.2267 54.1456 9.36C53.5562 8.45867 52.7416 7.852 51.7016 7.54C50.6616 7.228 49.3616 7.072 47.8016 7.072C46.3109 7.072 45.0456 7.228 44.0056 7.54C42.9656 7.852 42.1162 8.45867 41.4576 9.36C40.8336 10.2267 40.3656 11.492 40.0536 13.156C39.7762 14.82 39.6376 17.0387 39.6376 19.812C39.6376 22.4467 39.7589 24.596 40.0016 26.26C40.2789 27.8893 40.7296 29.1547 41.3536 30.056C41.9776 30.9227 42.8096 31.5293 43.8496 31.876C44.9242 32.2227 46.2416 32.396 47.8016 32.396ZM82.2369 39.312C79.9836 39.312 77.9903 39.052 76.2569 38.532C74.5583 38.012 73.1023 37.0587 71.8889 35.672C70.7103 34.2853 69.8089 32.3093 69.1849 29.744C68.5956 27.144 68.3009 23.7813 68.3009 19.656C68.3009 15.6693 68.6129 12.4107 69.2369 9.88C69.8956 7.31467 70.8316 5.33867 72.0449 3.952C73.2583 2.53067 74.7316 1.54267 76.4649 0.988C78.1983 0.433332 80.1569 0.155998 82.3409 0.155998C84.0743 0.155998 85.6863 0.259998 87.1769 0.467997C88.7023 0.64133 90.0716 0.866664 91.2849 1.144C92.4983 1.38667 93.5209 1.664 94.3529 1.976V7.956C93.7289 7.81733 92.8796 7.67867 91.8049 7.54C90.7649 7.40133 89.5689 7.29733 88.2169 7.228C86.8649 7.124 85.4436 7.072 83.9529 7.072C82.4969 7.072 81.2489 7.24533 80.2089 7.592C79.2036 7.904 78.3889 8.51067 77.7649 9.412C77.1756 10.2787 76.7249 11.544 76.4129 13.208C76.1356 14.872 75.9969 17.0387 75.9969 19.708C75.9969 22.2733 76.1183 24.388 76.3609 26.052C76.6383 27.716 77.0716 29.016 77.6609 29.952C78.2503 30.8533 79.0476 31.4947 80.0529 31.876C81.0929 32.2227 82.3929 32.396 83.9529 32.396C86.5876 32.396 88.7196 32.344 90.3489 32.24C92.0129 32.136 93.3476 32.0147 94.3529 31.876V37.804C93.4169 38.116 92.3423 38.3933 91.1289 38.636C89.9156 38.844 88.5809 39 87.1249 39.104C85.6689 39.2427 84.0396 39.312 82.2369 39.312ZM99.7577 39V0.52H107.454V16.432H112.55L120.454 0.52H128.67L118.686 19.864L128.982 39H120.766L112.55 23.4H107.454V39H99.7577ZM141.618 39.26C140.786 39.26 139.832 39.1733 138.758 39C137.683 38.8613 136.643 38.5147 135.638 37.96C134.667 37.4053 133.852 36.5733 133.194 35.464C132.57 34.32 132.258 32.76 132.258 30.784V9.308C132.258 7.60933 132.518 6.188 133.038 5.044C133.558 3.9 134.251 2.99866 135.118 2.34C135.984 1.68133 136.938 1.21333 137.978 0.935997C139.018 0.658665 140.04 0.52 141.046 0.52C143.646 0.52 145.934 0.554666 147.91 0.623998C149.92 0.693331 151.723 0.779997 153.318 0.883998C154.912 0.953332 156.368 1.05733 157.686 1.196V7.644H143.334C142.259 7.644 141.427 7.904 140.838 8.424C140.248 8.944 139.954 9.74133 139.954 10.816V16.38L155.19 16.796V22.88L139.954 23.296V28.6C139.954 29.5013 140.092 30.212 140.37 30.732C140.682 31.2173 141.08 31.564 141.566 31.772C142.086 31.9453 142.623 32.032 143.178 32.032H157.686V38.48C156.16 38.6533 154.462 38.792 152.59 38.896C150.752 39 148.88 39.0867 146.974 39.156C145.102 39.2253 143.316 39.26 141.618 39.26ZM171.345 39V7.436H160.789V0.52H189.649V7.436H179.041V39H171.345Z" fill="url(#paint0_linear_1_44)" fill-opacity="0.95"/>
<path d="M192.765 39L197.237 0.52H204.621L213.461 30.004L222.249 0.52H229.581L234.105 39H226.669L223.341 10.66L224.537 10.764L216.997 39H209.769L202.125 10.764L203.425 10.712L200.201 39H192.765ZM253.567 39.312C250.933 39.312 248.627 39.0693 246.651 38.584C244.675 38.064 243.011 37.128 241.659 35.776C240.342 34.3893 239.354 32.4133 238.695 29.848C238.037 27.2827 237.707 23.9373 237.707 19.812C237.707 15.6867 238.037 12.3413 238.695 9.776C239.389 7.176 240.394 5.18267 241.711 3.796C243.029 2.40933 244.675 1.456 246.651 0.935997C248.627 0.415998 250.933 0.155998 253.567 0.155998C256.202 0.155998 258.507 0.415998 260.483 0.935997C262.459 1.456 264.106 2.40933 265.423 3.796C266.741 5.18267 267.729 7.176 268.387 9.776C269.046 12.3413 269.375 15.6867 269.375 19.812C269.375 23.9373 269.046 27.2827 268.387 29.848C267.729 32.4133 266.741 34.3893 265.423 35.776C264.106 37.128 262.459 38.064 260.483 38.584C258.507 39.0693 256.202 39.312 253.567 39.312ZM253.567 32.396C255.127 32.396 256.427 32.2227 257.467 31.876C258.507 31.5293 259.322 30.9227 259.911 30.056C260.535 29.1547 260.986 27.8893 261.263 26.26C261.541 24.596 261.679 22.4467 261.679 19.812C261.679 17.0387 261.541 14.82 261.263 13.156C260.986 11.492 260.535 10.2267 259.911 9.36C259.322 8.45867 258.507 7.852 257.467 7.54C256.427 7.228 255.127 7.072 253.567 7.072C252.077 7.072 250.811 7.228 249.771 7.54C248.731 7.852 247.882 8.45867 247.223 9.36C246.599 10.2267 246.131 11.492 245.819 13.156C245.542 14.82 245.403 17.0387 245.403 19.812C245.403 22.4467 245.525 24.596 245.767 26.26C246.045 27.8893 246.495 29.1547 247.119 30.056C247.743 30.9227 248.575 31.5293 249.615 31.876C250.69 32.2227 252.007 32.396 253.567 32.396ZM289.927 39.312C287.292 39.312 284.987 39.0693 283.011 38.584C281.035 38.064 279.371 37.128 278.019 35.776C276.701 34.3893 275.713 32.4133 275.055 29.848C274.396 27.2827 274.067 23.9373 274.067 19.812C274.067 15.6867 274.396 12.3413 275.055 9.776C275.748 7.176 276.753 5.18267 278.071 3.796C279.388 2.40933 281.035 1.456 283.011 0.935997C284.987 0.415998 287.292 0.155998 289.927 0.155998C292.561 0.155998 294.867 0.415998 296.843 0.935997C298.819 1.456 300.465 2.40933 301.783 3.796C303.1 5.18267 304.088 7.176 304.747 9.776C305.405 12.3413 305.735 15.6867 305.735 19.812C305.735 23.9373 305.405 27.2827 304.747 29.848C304.088 32.4133 303.1 34.3893 301.783 35.776C300.465 37.128 298.819 38.064 296.843 38.584C294.867 39.0693 292.561 39.312 289.927 39.312ZM289.927 32.396C291.487 32.396 292.787 32.2227 293.827 31.876C294.867 31.5293 295.681 30.9227 296.271 30.056C296.895 29.1547 297.345 27.8893 297.623 26.26C297.9 24.596 298.039 22.4467 298.039 19.812C298.039 17.0387 297.9 14.82 297.623 13.156C297.345 11.492 296.895 10.2267 296.271 9.36C295.681 8.45867 294.867 7.852 293.827 7.54C292.787 7.228 291.487 7.072 289.927 7.072C288.436 7.072 287.171 7.228 286.131 7.54C285.091 7.852 284.241 8.45867 283.583 9.36C282.959 10.2267 282.491 11.492 282.179 13.156C281.901 14.82 281.763 17.0387 281.763 19.812C281.763 22.4467 281.884 24.596 282.127 26.26C282.404 27.8893 282.855 29.1547 283.479 30.056C284.103 30.9227 284.935 31.5293 285.975 31.876C287.049 32.2227 288.367 32.396 289.927 32.396ZM311.674 39V0.52H317.862L333.982 25.896V0.52H341.678V39H335.49L319.422 13.624V39H311.674Z" fill="url(#paint1_linear_1_44)"/>
<defs>
<linearGradient id="paint0_linear_1_44" x1="179.5" y1="-5" x2="179.5" y2="40" gradientUnits="userSpaceOnUse">
<stop offset="0.529167" stop-color="#F3F3F2"/>
<stop offset="1" stop-color="#F3F3F2" stop-opacity="0"/>
</linearGradient>
<linearGradient id="paint1_linear_1_44" x1="179.5" y1="-5" x2="179.5" y2="40" gradientUnits="userSpaceOnUse">
<stop offset="0.492708" stop-color="#FDAD00"/>
<stop offset="1" stop-color="#FDAD00" stop-opacity="0"/>
</linearGradient>
</defs>
</svg>
