<svg width="20" height="16" viewBox="0 0 20 16" fill="none" xmlns="http://www.w3.org/2000/svg">
<path d="M11.4096 0.590745C11.5024 0.68115 11.8992 1.0225 12.2256 1.34048C14.2784 3.20468 17.6384 8.0678 18.664 10.6132C18.8288 10.9997 19.1776 11.977 19.2 12.4992C19.2 12.9995 19.0848 13.4765 18.8512 13.9316C18.5248 14.499 18.0112 14.9541 17.4048 15.2035C16.984 15.3641 15.7248 15.6134 15.7024 15.6134C14.3248 15.8628 12.0864 16 9.6128 16C7.256 16 5.1088 15.8628 3.7104 15.6586C3.688 15.6353 2.1232 15.3859 1.5872 15.1131C0.608 14.6128 0 13.6355 0 12.5896V12.4992C0.024 11.818 0.632 10.3856 0.6544 10.3856C1.6816 7.9774 4.8768 3.2265 7 1.3171C7 1.3171 7.5456 0.779347 7.8864 0.545543C8.376 0.180809 8.9824 0 9.5888 0C10.2656 0 10.896 0.204189 11.4096 0.590745Z" fill="#F3F3F2"/>
</svg>
